<?xml version="1.0" standalone="no"?>
<!DOCTYPE svg PUBLIC "-//W3C//DTD SVG 20010904//EN"
 "http://www.w3.org/TR/2001/REC-SVG-20010904/DTD/svg10.dtd">
<svg version="1.0" xmlns="http://www.w3.org/2000/svg"
 width="16.000000pt" height="16.000000pt" viewBox="0 0 16.000000 16.000000"
 preserveAspectRatio="xMidYMid meet">

<g transform="translate(0.000000,16.000000) scale(0.100000,-0.100000)"
fill="#000000" stroke="none">
<path d="M0 80 l0 -80 80 0 80 0 0 80 0 80 -80 0 -80 0 0 -80z m145 0 l0 -65
-65 0 -65 0 -3 68 -3 68 68 -3 68 -3 0 -65z"/>
<path d="M28 80 l4 -40 44 0 c51 0 59 17 12 23 l-33 4 33 1 c17 1 32 6 32 11
0 6 -15 12 -32 14 -29 3 -27 4 10 5 64 3 50 22 -16 22 l-58 0 4 -40z"/>
</g>
</svg>
